<mxfile host="localhost" modified="2020-05-16T19:37:38.233Z" agent="5.0 (Windows NT 10.0; Win64; x64) AppleWebKit/537.36 (KHTML, like Gecko) Code/1.45.1 Chrome/78.0.3904.130 Electron/7.2.4 Safari/537.36" etag="V4cjCM2XhCb7p_RDxZ_a" version="13.0.9">
    <diagram id="YoxVWd8_yY7K6aRY8aYK" name="Page-1">
        <mxGraphModel dx="171" dy="134" grid="1" gridSize="10" guides="1" tooltips="1" connect="1" arrows="1" fold="1" page="1" pageScale="1" pageWidth="1169" pageHeight="827" math="0" shadow="0">
            <root>
                <mxCell id="0"/>
                <mxCell id="1" parent="0"/>
                <mxCell id="105" style="edgeStyle=orthogonalEdgeStyle;rounded=0;orthogonalLoop=1;jettySize=auto;html=1;exitX=1;exitY=0.5;exitDx=0;exitDy=0;entryX=0;entryY=0.5;entryDx=0;entryDy=0;" edge="1" parent="1" source="89" target="90">
                    <mxGeometry relative="1" as="geometry"/>
                </mxCell>
                <mxCell id="107" style="edgeStyle=orthogonalEdgeStyle;rounded=0;orthogonalLoop=1;jettySize=auto;html=1;exitX=1;exitY=0.5;exitDx=0;exitDy=0;entryX=0;entryY=0.5;entryDx=0;entryDy=0;entryPerimeter=0;" edge="1" parent="1" source="90" target="117">
                    <mxGeometry relative="1" as="geometry"/>
                </mxCell>
                <mxCell id="90" value="" style="aspect=fixed;perimeter=ellipsePerimeter;html=1;align=center;shadow=0;dashed=0;spacingTop=3;image;image=img/lib/active_directory/database_server.svg;fontStyle=1" vertex="1" parent="1">
                    <mxGeometry x="400.36" y="84.74000000000001" width="82" height="100" as="geometry"/>
                </mxCell>
                <mxCell id="143" style="edgeStyle=orthogonalEdgeStyle;rounded=0;orthogonalLoop=1;jettySize=auto;html=1;exitX=1;exitY=0.5;exitDx=0;exitDy=0;entryX=0;entryY=0.5;entryDx=0;entryDy=0;strokeColor=#000000;" edge="1" parent="1" source="91" target="89">
                    <mxGeometry relative="1" as="geometry">
                        <Array as="points">
                            <mxPoint x="200" y="80"/>
                            <mxPoint x="200" y="135"/>
                        </Array>
                    </mxGeometry>
                </mxCell>
                <mxCell id="91" value="" style="aspect=fixed;perimeter=ellipsePerimeter;html=1;align=center;shadow=0;dashed=0;spacingTop=3;image;image=img/lib/active_directory/vista_client.svg;" vertex="1" parent="1">
                    <mxGeometry x="40" y="40" width="60.81" height="80.01" as="geometry"/>
                </mxCell>
                <mxCell id="89" value="" style="aspect=fixed;perimeter=ellipsePerimeter;html=1;align=center;shadow=0;dashed=0;spacingTop=3;image;image=img/lib/active_directory/web_server.svg;fontStyle=1;verticalAlign=top;labelBackgroundColor=#ffffff;horizontal=1;" vertex="1" parent="1">
                    <mxGeometry x="240" y="84.75" width="80" height="100" as="geometry"/>
                </mxCell>
                <mxCell id="117" value="" style="aspect=fixed;pointerEvents=1;shadow=0;dashed=0;html=1;strokeColor=none;labelPosition=center;verticalLabelPosition=bottom;verticalAlign=top;align=center;fillColor=#00188D;shape=mxgraph.mscae.general.graph;labelBackgroundColor=#ffffff;" vertex="1" parent="1">
                    <mxGeometry x="560" y="94.74000000000001" width="80" height="80" as="geometry"/>
                </mxCell>
                <mxCell id="118" value="" style="html=1;aspect=fixed;strokeColor=none;shadow=0;align=center;verticalAlign=top;fillColor=#3B8DF1;shape=mxgraph.gcp2.gear_arrow" vertex="1" parent="1">
                    <mxGeometry x="400.36000000000007" y="364" width="162.71" height="99.25" as="geometry"/>
                </mxCell>
                <mxCell id="150" style="edgeStyle=orthogonalEdgeStyle;rounded=0;orthogonalLoop=1;jettySize=auto;html=1;exitX=1;exitY=0.5;exitDx=0;exitDy=0;strokeColor=#000000;" edge="1" parent="1" source="132">
                    <mxGeometry relative="1" as="geometry">
                        <mxPoint x="400" y="415.75" as="targetPoint"/>
                    </mxGeometry>
                </mxCell>
                <mxCell id="132" value="" style="aspect=fixed;perimeter=ellipsePerimeter;html=1;align=center;shadow=0;dashed=0;spacingTop=3;image;image=img/lib/active_directory/web_server.svg;fontStyle=1;verticalAlign=top;labelBackgroundColor=#ffffff;horizontal=1;" vertex="1" parent="1">
                    <mxGeometry x="240" y="365.75" width="80" height="100" as="geometry"/>
                </mxCell>
                <mxCell id="144" style="edgeStyle=orthogonalEdgeStyle;rounded=0;orthogonalLoop=1;jettySize=auto;html=1;exitX=1;exitY=0.5;exitDx=0;exitDy=0;strokeColor=#000000;entryX=0;entryY=0.5;entryDx=0;entryDy=0;" edge="1" parent="1" source="136" target="89">
                    <mxGeometry relative="1" as="geometry">
                        <mxPoint x="210" y="160" as="targetPoint"/>
                        <Array as="points">
                            <mxPoint x="200" y="185"/>
                            <mxPoint x="200" y="135"/>
                        </Array>
                    </mxGeometry>
                </mxCell>
                <mxCell id="136" value="" style="aspect=fixed;perimeter=ellipsePerimeter;html=1;align=center;shadow=0;dashed=0;spacingTop=3;image;image=img/lib/active_directory/vista_client.svg;" vertex="1" parent="1">
                    <mxGeometry x="40" y="144.76" width="60.81" height="80.01" as="geometry"/>
                </mxCell>
                <mxCell id="142" style="edgeStyle=orthogonalEdgeStyle;rounded=0;orthogonalLoop=1;jettySize=auto;html=1;exitX=1;exitY=0.5;exitDx=0;exitDy=0;entryX=0;entryY=0.5;entryDx=0;entryDy=0;strokeColor=#000000;" edge="1" parent="1" source="137" target="89">
                    <mxGeometry relative="1" as="geometry"/>
                </mxCell>
                <mxCell id="137" value="" style="aspect=fixed;perimeter=ellipsePerimeter;html=1;align=center;shadow=0;dashed=0;spacingTop=3;image;image=img/lib/active_directory/vista_client.svg;" vertex="1" parent="1">
                    <mxGeometry x="100" y="94.74000000000001" width="60.81" height="80.01" as="geometry"/>
                </mxCell>
                <mxCell id="145" style="edgeStyle=orthogonalEdgeStyle;rounded=0;orthogonalLoop=1;jettySize=auto;html=1;exitX=1;exitY=0.5;exitDx=0;exitDy=0;entryX=0;entryY=0.5;entryDx=0;entryDy=0;strokeColor=#000000;" edge="1" parent="1" source="138" target="132">
                    <mxGeometry relative="1" as="geometry">
                        <Array as="points">
                            <mxPoint x="200" y="361"/>
                            <mxPoint x="200" y="416"/>
                        </Array>
                    </mxGeometry>
                </mxCell>
                <mxCell id="138" value="" style="aspect=fixed;perimeter=ellipsePerimeter;html=1;align=center;shadow=0;dashed=0;spacingTop=3;image;image=img/lib/active_directory/vista_client.svg;" vertex="1" parent="1">
                    <mxGeometry x="40" y="321" width="60.81" height="80.01" as="geometry"/>
                </mxCell>
                <mxCell id="146" style="edgeStyle=orthogonalEdgeStyle;rounded=0;orthogonalLoop=1;jettySize=auto;html=1;exitX=1;exitY=0.5;exitDx=0;exitDy=0;entryX=0;entryY=0.5;entryDx=0;entryDy=0;strokeColor=#000000;" edge="1" parent="1" source="139" target="132">
                    <mxGeometry relative="1" as="geometry">
                        <Array as="points">
                            <mxPoint x="200" y="466"/>
                            <mxPoint x="200" y="416"/>
                        </Array>
                    </mxGeometry>
                </mxCell>
                <mxCell id="139" value="" style="aspect=fixed;perimeter=ellipsePerimeter;html=1;align=center;shadow=0;dashed=0;spacingTop=3;image;image=img/lib/active_directory/vista_client.svg;" vertex="1" parent="1">
                    <mxGeometry x="40" y="425.76" width="60.81" height="80.01" as="geometry"/>
                </mxCell>
                <mxCell id="147" style="edgeStyle=orthogonalEdgeStyle;rounded=0;orthogonalLoop=1;jettySize=auto;html=1;exitX=1;exitY=0.5;exitDx=0;exitDy=0;entryX=0;entryY=0.5;entryDx=0;entryDy=0;strokeColor=#000000;" edge="1" parent="1" source="140" target="132">
                    <mxGeometry relative="1" as="geometry"/>
                </mxCell>
                <mxCell id="140" value="" style="aspect=fixed;perimeter=ellipsePerimeter;html=1;align=center;shadow=0;dashed=0;spacingTop=3;image;image=img/lib/active_directory/vista_client.svg;" vertex="1" parent="1">
                    <mxGeometry x="100" y="375.74" width="60.81" height="80.01" as="geometry"/>
                </mxCell>
                <mxCell id="141" value="" style="aspect=fixed;pointerEvents=1;shadow=0;dashed=0;html=1;strokeColor=none;labelPosition=center;verticalLabelPosition=bottom;verticalAlign=top;align=center;fillColor=#00188D;shape=mxgraph.mscae.general.graph;labelBackgroundColor=#ffffff;" vertex="1" parent="1">
                    <mxGeometry x="510" y="414" width="34" height="34" as="geometry"/>
                </mxCell>
                <mxCell id="153" value="" style="aspect=fixed;html=1;points=[];align=center;image;fontSize=12;image=img/lib/mscae/aspect=fixed;html=1;perimeter=none;align=center;shadow=0;dashed=0;image;fontSize=12;image=img/lib/mscae/Virtual_WANs.svg;labelBackgroundColor=#ffffff;" vertex="1" parent="1">
                    <mxGeometry x="40" y="650.13" width="50" height="50" as="geometry"/>
                </mxCell>
                <mxCell id="157" style="edgeStyle=orthogonalEdgeStyle;rounded=0;orthogonalLoop=1;jettySize=auto;html=1;exitX=1;exitY=0.5;exitDx=0;exitDy=0;entryX=0;entryY=0.5;entryDx=0;entryDy=0;" edge="1" parent="1" source="162" target="159">
                    <mxGeometry relative="1" as="geometry"/>
                </mxCell>
                <mxCell id="158" style="edgeStyle=orthogonalEdgeStyle;rounded=0;orthogonalLoop=1;jettySize=auto;html=1;exitX=1;exitY=0.5;exitDx=0;exitDy=0;entryX=0;entryY=0.5;entryDx=0;entryDy=0;entryPerimeter=0;" edge="1" parent="1" source="159">
                    <mxGeometry relative="1" as="geometry">
                        <mxPoint x="559.9999999999998" y="674.7400000000002" as="targetPoint"/>
                    </mxGeometry>
                </mxCell>
                <mxCell id="159" value="" style="aspect=fixed;perimeter=ellipsePerimeter;html=1;align=center;shadow=0;dashed=0;spacingTop=3;image;image=img/lib/active_directory/database_server.svg;fontStyle=1" vertex="1" parent="1">
                    <mxGeometry x="400.36" y="624.74" width="82" height="100" as="geometry"/>
                </mxCell>
                <mxCell id="160" style="edgeStyle=orthogonalEdgeStyle;rounded=0;orthogonalLoop=1;jettySize=auto;html=1;exitX=1;exitY=0.5;exitDx=0;exitDy=0;entryX=0;entryY=0.5;entryDx=0;entryDy=0;strokeColor=#000000;" edge="1" parent="1" target="162">
                    <mxGeometry relative="1" as="geometry">
                        <Array as="points">
                            <mxPoint x="200" y="620"/>
                            <mxPoint x="200" y="675"/>
                        </Array>
                        <mxPoint x="100.81000000000017" y="620.0050000000001" as="sourcePoint"/>
                    </mxGeometry>
                </mxCell>
                <mxCell id="162" value="" style="aspect=fixed;perimeter=ellipsePerimeter;html=1;align=center;shadow=0;dashed=0;spacingTop=3;image;image=img/lib/active_directory/web_server.svg;fontStyle=1;verticalAlign=top;labelBackgroundColor=#ffffff;horizontal=1;" vertex="1" parent="1">
                    <mxGeometry x="240" y="624.75" width="80" height="100" as="geometry"/>
                </mxCell>
                <mxCell id="164" style="edgeStyle=orthogonalEdgeStyle;rounded=0;orthogonalLoop=1;jettySize=auto;html=1;exitX=1;exitY=0.5;exitDx=0;exitDy=0;strokeColor=#000000;entryX=0;entryY=0.5;entryDx=0;entryDy=0;" edge="1" parent="1" target="162">
                    <mxGeometry relative="1" as="geometry">
                        <mxPoint x="210" y="700" as="targetPoint"/>
                        <Array as="points">
                            <mxPoint x="200" y="725"/>
                            <mxPoint x="200" y="675"/>
                        </Array>
                        <mxPoint x="100.81000000000017" y="724.7650000000001" as="sourcePoint"/>
                    </mxGeometry>
                </mxCell>
                <mxCell id="166" style="edgeStyle=orthogonalEdgeStyle;rounded=0;orthogonalLoop=1;jettySize=auto;html=1;exitX=1;exitY=0.5;exitDx=0;exitDy=0;strokeColor=#000000;" edge="1" parent="1">
                    <mxGeometry relative="1" as="geometry">
                        <mxPoint x="160.81000000000017" y="674.7450000000001" as="sourcePoint"/>
                        <mxPoint x="240" y="675" as="targetPoint"/>
                        <Array as="points">
                            <mxPoint x="200" y="675"/>
                            <mxPoint x="240" y="675"/>
                        </Array>
                    </mxGeometry>
                </mxCell>
                <mxCell id="168" value="" style="html=1;aspect=fixed;strokeColor=none;shadow=0;align=center;verticalAlign=top;fillColor=#3B8DF1;shape=mxgraph.gcp2.gear_arrow" vertex="1" parent="1">
                    <mxGeometry x="563.07" y="625.5" width="162.71" height="99.25" as="geometry"/>
                </mxCell>
                <mxCell id="169" value="" style="aspect=fixed;pointerEvents=1;shadow=0;dashed=0;html=1;strokeColor=none;labelPosition=center;verticalLabelPosition=bottom;verticalAlign=top;align=center;fillColor=#00188D;shape=mxgraph.mscae.general.graph;labelBackgroundColor=#ffffff;" vertex="1" parent="1">
                    <mxGeometry x="672.71" y="675.5" width="34" height="34" as="geometry"/>
                </mxCell>
                <mxCell id="173" value="" style="pointerEvents=1;shadow=0;dashed=0;html=1;strokeColor=none;fillColor=#505050;labelPosition=center;verticalLabelPosition=bottom;verticalAlign=top;outlineConnect=0;align=center;shape=mxgraph.office.users.universal_security_group;labelBackgroundColor=#ffffff;" vertex="1" parent="1">
                    <mxGeometry x="40" y="590" width="58" height="58" as="geometry"/>
                </mxCell>
                <mxCell id="174" value="" style="pointerEvents=1;shadow=0;dashed=0;html=1;strokeColor=none;fillColor=#505050;labelPosition=center;verticalLabelPosition=bottom;verticalAlign=top;outlineConnect=0;align=center;shape=mxgraph.office.users.universal_security_group;labelBackgroundColor=#ffffff;" vertex="1" parent="1">
                    <mxGeometry x="98" y="646.13" width="58" height="58" as="geometry"/>
                </mxCell>
                <mxCell id="175" value="" style="pointerEvents=1;shadow=0;dashed=0;html=1;strokeColor=none;fillColor=#505050;labelPosition=center;verticalLabelPosition=bottom;verticalAlign=top;outlineConnect=0;align=center;shape=mxgraph.office.users.universal_security_group;labelBackgroundColor=#ffffff;" vertex="1" parent="1">
                    <mxGeometry x="40" y="700" width="58" height="58" as="geometry"/>
                </mxCell>
                <mxCell id="176" value="&lt;b style=&quot;font-size: 14px&quot;&gt;Clientes não segmentados&lt;/b&gt;" style="text;html=1;strokeColor=none;fillColor=none;align=center;verticalAlign=middle;whiteSpace=wrap;rounded=0;labelBackgroundColor=#ffffff;fontSize=14;" vertex="1" parent="1">
                    <mxGeometry x="130" y="200" width="50.81" height="10" as="geometry"/>
                </mxCell>
                <mxCell id="178" value="&lt;b style=&quot;font-size: 14px&quot;&gt;Servidor Web&lt;/b&gt;" style="text;html=1;strokeColor=none;fillColor=none;align=center;verticalAlign=middle;whiteSpace=wrap;rounded=0;labelBackgroundColor=#ffffff;fontSize=14;" vertex="1" parent="1">
                    <mxGeometry x="240" y="200" width="80" height="10" as="geometry"/>
                </mxCell>
                <mxCell id="180" value="&lt;b style=&quot;font-size: 14px&quot;&gt;Servidor de Banco de Dados&lt;/b&gt;" style="text;html=1;strokeColor=none;fillColor=none;align=center;verticalAlign=middle;whiteSpace=wrap;rounded=0;labelBackgroundColor=#ffffff;fontSize=14;" vertex="1" parent="1">
                    <mxGeometry x="381.36" y="195" width="120" height="20" as="geometry"/>
                </mxCell>
                <mxCell id="181" value="&lt;b style=&quot;font-size: 14px&quot;&gt;Dados Brutos&lt;/b&gt;" style="text;html=1;strokeColor=none;fillColor=none;align=center;verticalAlign=middle;whiteSpace=wrap;rounded=0;labelBackgroundColor=#ffffff;fontSize=14;" vertex="1" parent="1">
                    <mxGeometry x="540" y="195" width="120" height="20" as="geometry"/>
                </mxCell>
                <mxCell id="183" value="&lt;b style=&quot;font-size: 14px&quot;&gt;Servidor Web&lt;/b&gt;" style="text;html=1;strokeColor=none;fillColor=none;align=center;verticalAlign=middle;whiteSpace=wrap;rounded=0;labelBackgroundColor=#ffffff;fontSize=14;" vertex="1" parent="1">
                    <mxGeometry x="240" y="475" width="80" height="20" as="geometry"/>
                </mxCell>
                <mxCell id="184" value="&lt;b style=&quot;font-size: 14px&quot;&gt;Escores calculados&lt;/b&gt;" style="text;html=1;strokeColor=none;fillColor=none;align=center;verticalAlign=middle;whiteSpace=wrap;rounded=0;labelBackgroundColor=#ffffff;fontSize=14;" vertex="1" parent="1">
                    <mxGeometry x="400" y="475" width="160" height="20" as="geometry"/>
                </mxCell>
                <mxCell id="185" value="&lt;b style=&quot;font-size: 14px&quot;&gt;Clientes não segmentados&lt;/b&gt;" style="text;html=1;strokeColor=none;fillColor=none;align=center;verticalAlign=middle;whiteSpace=wrap;rounded=0;labelBackgroundColor=#ffffff;fontSize=14;" vertex="1" parent="1">
                    <mxGeometry x="130" y="480" width="50.81" height="10" as="geometry"/>
                </mxCell>
                <mxCell id="188" value="&lt;b style=&quot;font-size: 14px&quot;&gt;Clientes&lt;br&gt;segmentados&lt;/b&gt;" style="text;html=1;strokeColor=none;fillColor=none;align=center;verticalAlign=middle;whiteSpace=wrap;rounded=0;labelBackgroundColor=#ffffff;fontSize=14;" vertex="1" parent="1">
                    <mxGeometry x="120" y="740" width="50.81" height="10" as="geometry"/>
                </mxCell>
                <mxCell id="191" value="&lt;b style=&quot;font-size: 14px&quot;&gt;Servidor Web&lt;/b&gt;" style="text;html=1;strokeColor=none;fillColor=none;align=center;verticalAlign=middle;whiteSpace=wrap;rounded=0;labelBackgroundColor=#ffffff;fontSize=14;" vertex="1" parent="1">
                    <mxGeometry x="240" y="735" width="80" height="20" as="geometry"/>
                </mxCell>
                <mxCell id="192" value="&lt;b style=&quot;font-size: 14px&quot;&gt;Escores calculados&lt;/b&gt;" style="text;html=1;strokeColor=none;fillColor=none;align=center;verticalAlign=middle;whiteSpace=wrap;rounded=0;labelBackgroundColor=#ffffff;fontSize=14;" vertex="1" parent="1">
                    <mxGeometry x="565.78" y="735" width="160" height="20" as="geometry"/>
                </mxCell>
                <mxCell id="193" value="&lt;b style=&quot;font-size: 14px&quot;&gt;Servidor de Banco de Dados&lt;/b&gt;" style="text;html=1;strokeColor=none;fillColor=none;align=center;verticalAlign=middle;whiteSpace=wrap;rounded=0;labelBackgroundColor=#ffffff;fontSize=14;" vertex="1" parent="1">
                    <mxGeometry x="381.36" y="735" width="120" height="20" as="geometry"/>
                </mxCell>
            </root>
        </mxGraphModel>
    </diagram>
</mxfile>